<svg width="25" height="25" fill="none" xmlns="http://www.w3.org/2000/svg"><g clip-path="url(#clip0_1487_450)" fill="#fff"><path d="M19.196 13.393A5.804 5.804 0 1025 19.196a5.81 5.81 0 00-5.804-5.803zm4.464 6.25h-4.017v3.571h-.893v-3.571h-4.018v-.893h4.018v-4.018h.893v4.018h4.017v.893zM14.733 0h9.821c.247 0 .446.2.446.446v9.822c0 .246-.2.446-.446.446h-9.821a.446.446 0 01-.447-.446V.446c0-.246.2-.446.447-.446zM.446 0h9.822c.246 0 .446.2.446.446v9.822c0 .246-.2.446-.446.446H.446A.446.446 0 010 10.268V.446C0 .2.2 0 .446 0zm0 14.286h9.822c.246 0 .446.2.446.446v9.822c0 .246-.2.446-.446.446H.446A.446.446 0 010 24.554v-9.822c0-.246.2-.446.446-.446z"/></g><defs><clipPath id="clip0_1487_450"><path fill="#fff" d="M0 0h25v25H0z"/></clipPath></defs></svg>