<svg width="25" height="25" fill="none" xmlns="http://www.w3.org/2000/svg"><path d="M25 4.167V3.125a3.125 3.125 0 10-6.25 0V6.25h-5.208V3.125a1.041 1.041 0 112.083 0v1.042h2.083V3.125a3.125 3.125 0 10-6.25 0V14.74a6.042 6.042 0 00-1.457-.157c-2.5 0-2.5 1.042-5 1.042S2.5 14.583 0 14.583v4.167c2.5 0 2.5 1.042 5 1.042s2.5-1.042 5-1.042 2.5 1.042 5 1.042 2.5-1.042 5-1.042 2.5 1.042 5 1.042v-4.167c-2.186 0-2.46-.796-4.167-.996V3.125a1.042 1.042 0 012.084 0v1.042H25zm-6.25 4.166v2.084h-5.208V8.333h5.208zm-5.208 7.136V12.5h5.208v2.194c-1.35.268-1.755.931-3.75.931-.49.007-.98-.045-1.458-.156z" fill="#FFF"/><path d="M15 20.833c-2.5 0-2.5-1.041-5-1.041s-2.5 1.041-5 1.041-2.5-1.041-5-1.041V25h25v-4.167c-2.5 0-2.5-1.041-5-1.041s-2.5 1.041-5 1.041z" fill="#FFF"/></svg>