<svg width="25" height="19" fill="none" xmlns="http://www.w3.org/2000/svg"><path d="M20.305 18.677a.977.977 0 01-.976-.975v-.976h.976c1.555 0 1.95-.529 1.95-.529v1.505a.977.977 0 01-.975.975h-.975zm-16.585 0a.977.977 0 01-.976-.975v-1.505s.396.529 1.951.529h.976v.976a.977.977 0 01-.976.975H3.72zM25 8.434a2.25 2.25 0 00-4.364-.787l-1.07 2.396c-.08-.05-3.316-1.066-7.005-1.066-3.69 0-7.054 1.021-7.136 1.072L4.412 7.8A2.25 2.25 0 000 8.435 2.25 2.25 0 001.657 10.6l.418 3.59c.441 1.522 2.62 1.56 2.62 1.56h15.61s2.179-.038 2.62-1.563l.418-3.589A2.25 2.25 0 0025 8.434z" fill="#fff"/><path d="M2.257 5.006c1.475 0 2.798.974 3.252 2.379l.494 1.097c.955-.344 4.389-.676 6.559-.676 2.11 0 5.495.309 6.431.65l.561-1.257a3.44 3.44 0 013.19-2.193c.104 0 .203.022.305.03v-.018A4.695 4.695 0 0018.355.323H6.648a4.695 4.695 0 00-4.696 4.695l.001.019c.102-.008.2-.03.304-.03z" fill="#fff"/></svg>