<svg width="25" height="25" fill="none" xmlns="http://www.w3.org/2000/svg"><path d="M12.5 1.958c-5.822 0-10.542 4.72-10.542 10.542 0 4.195 2.457 7.807 6.005 9.504l.33-6.376s-.621-.204-.757-.27c-1.316-.58-2.273-2.287-2.273-4.503 0-2.418 1.876-4.501 3.689-4.519h.007c1.813.018 3.689 2.1 3.689 4.519 0 2.216-.958 3.922-2.272 4.503-.01.005-.762.278-.762.278l.368 7.089c.809.199 1.65.316 2.52.316 1.173 0 2.297-.2 3.351-.553l.327-6.318a3.39 3.39 0 01-2.055-1.425c-.57-.853.439-8.41.439-8.41h.656v7.091h.652v-7.09h.712v7.092h.649V6.337h.74v7.09h.65v-7.09h.503s1.009 7.555.438 8.41c-.455.68-1.182 1.226-2.032 1.42a.978.978 0 00-.03.01l.285 5.435c3.14-1.826 5.256-5.218 5.256-9.112-.001-5.823-4.72-10.542-10.543-10.542z" fill="#fff"/><path d="M6.807 9.783c.037-.154.088-.3.09-.303.017-.057-.014-.116-.076-.153-.06-.032-.132-.016-.166.035l-.176.285c-.085.146-.211.38-.297.67a5.541 5.541 0 00-.203.973 4.5 4.5 0 00-.015.564c.015.21.047.391.108.598.207.588.366 1.158.942 1.72.182.187.369.315.504.409l.047.033a.963.963 0 00.287.136.122.122 0 00.14-.057c.022-.048.005-.109-.042-.147 0 0-.065-.057-.15-.164-.057-.065-.12-.159-.193-.264l-.168-.242c-.28-.428-.442-1.026-.666-1.638a2.177 2.177 0 01-.093-.45 4.603 4.603 0 01-.026-.482c-.007-.35.009-.651.04-.895.035-.275.062-.481.113-.628z" fill="#fff"/><path d="M12.5 0C5.61 0 0 5.608 0 12.5 0 19.39 5.609 25 12.5 25 19.393 25 25 19.39 25 12.5 25 5.608 19.392 0 12.5 0zm0 24.068C6.123 24.068.933 18.878.933 12.5.932 6.121 6.122.931 12.5.931S24.068 6.121 24.068 12.5c0 6.378-5.19 11.568-11.568 11.568z" fill="#fff"/></svg>