<svg width="48" height="50" fill="none" xmlns="http://www.w3.org/2000/svg"><path d="M3.199.176c-1.23.615-.947 2.5.4 2.715l.381.068L4 7.236l.03 4.278L9.37 7.93l5.352-3.584V2.949l.342-.058c.479-.088.996-.577 1.123-1.045.196-.713-.205-1.475-.908-1.739C15.094.04 13.082 0 9.273 0 4.01 0 3.511.01 3.2.176zM38.404.127c-.4.185-.576.4-.938 1.172-.556 1.2-.478 2.324.225 3.3l.293.41-.205.43c-.557 1.162.156 2.364 1.348 2.246.703-.078 1.181-.556 1.572-1.591.371-.996.215-2.139-.41-2.9l-.303-.382.234-.498c.41-.859.264-1.543-.42-2.05-.322-.245-1.015-.303-1.396-.137zM22.73 2.52c-.185.107-5.087 3.369-10.888 7.265C4.605 14.64 1.227 16.973 1.08 17.187c-.215.313-.225.41-.225 2.344 0 1.944.01 2.031.225 2.354.117.185.371.41.557.507.322.157 1.523.166 21.845.147l21.504-.03.264-.204c.645-.479.674-.567.703-2.52.04-2.148-.02-2.46-.596-2.94-.585-.478-21.044-14.208-21.425-14.365-.43-.185-.801-.175-1.201.04zm1.846 6.318c1.914.459 3.408 1.885 3.975 3.808.224.772.224 2.061 0 2.832-.733 2.48-2.988 4.092-5.488 3.926-2.832-.195-5.02-2.52-5.02-5.342 0-3.427 3.223-6.005 6.533-5.224z" fill="#fff"/><path d="M22.73 11.709c-1.416.43-2.148 2.012-1.552 3.33 1.084 2.393 4.619 1.64 4.619-.976 0-1.612-1.563-2.813-3.067-2.354zM44.654 4.15c-.468.254-.586.4-.918 1.124-.556 1.191-.488 2.275.196 3.222l.302.42-.205.43c-.556 1.162.157 2.363 1.348 2.246.703-.078 1.182-.557 1.572-1.592.371-.996.215-2.139-.4-2.89l-.293-.372.215-.41c.547-1.064.02-2.177-1.094-2.295-.283-.02-.527.02-.723.118zM3.2 26.807v1.318h40.429v-2.637H3.199v1.319zm0 5.517v1.27h40.429v-2.54H3.199v1.27zm0 5.469v1.27h6.248v-2.54H3.2v1.27zm9.179 5.469V50h6.445V36.523H12.38v6.739zm9.375-5.469v1.27h3.32v-2.54h-3.32v1.27zm6.25 2.734v4.004h6.445v-8.008h-6.445v4.004zm9.375-2.734v1.27h6.25v-2.54h-6.25v1.27zM3.2 43.262v1.27h6.248v-2.54H3.2v1.27zm18.554 0v1.27h3.32v-2.54h-3.32v1.27zm15.625 0v1.27h6.25v-2.54h-6.25v1.27zM3.2 48.232c0 .635.038.82.224 1.094.42.645.596.674 3.467.674h2.558v-2.54H3.2v.772zm18.554.498V50l10.44-.02c10.38-.029 10.449-.029 10.712-.234.528-.39.655-.664.703-1.504l.05-.781H21.753v1.27z" fill="#fff"/></svg>