<svg width="24" height="9" fill="none" xmlns="http://www.w3.org/2000/svg"><path fill-rule="evenodd" clip-rule="evenodd" d="M24 4.5a.73.73 0 00-.151-.455.472.472 0 00-.366-.188H1.767L3.987 1.1A.73.73 0 004.14.644a.73.73 0 00-.151-.456A.473.473 0 003.62 0a.473.473 0 00-.366.188L.152 4.045a.67.67 0 00-.113.209.78.78 0 000 .492.67.67 0 00.113.21l3.103 3.856c.097.12.23.188.366.188.138 0 .27-.068.367-.188a.73.73 0 00.151-.456.73.73 0 00-.151-.455L1.767 5.143h21.716a.472.472 0 00.366-.189A.73.73 0 0024 4.5z" fill="#fff"/></svg>