<svg width="24" height="9" fill="none" xmlns="http://www.w3.org/2000/svg"><path fill-rule="evenodd" clip-rule="evenodd" d="M0 4.5a.73.73 0 01.151-.455.472.472 0 01.366-.188h21.716L20.013 1.1a.73.73 0 01-.152-.455.73.73 0 01.151-.456.473.473 0 01.366-.188c.138 0 .27.068.367.188l3.103 3.857a.67.67 0 01.113.209.78.78 0 010 .492.67.67 0 01-.113.21l-3.103 3.856a.473.473 0 01-.367.188.473.473 0 01-.366-.188.73.73 0 01-.151-.456.73.73 0 01.151-.455l2.221-2.758H.517a.472.472 0 01-.366-.189A.73.73 0 010 4.5z" fill="#fff"/></svg>