<svg width="25" height="19" viewBox="0 0 25 19" fill="none" xmlns="http://www.w3.org/2000/svg">
<path d="M20.3047 18.6772C19.7671 18.6772 19.3291 18.2391 19.3291 17.7016V16.726H20.3047C21.8597 16.726 22.2558 16.1973 22.2558 16.1973V17.7016C22.2558 18.2391 21.8178 18.6772 21.2802 18.6772H20.3047Z" fill="white"/>
<path d="M3.71971 18.6772C3.18217 18.6772 2.74414 18.2391 2.74414 17.7016V16.1973C2.74414 16.1973 3.14022 16.726 4.69528 16.726H5.67086V17.7016C5.67086 18.2391 5.23282 18.6772 4.69528 18.6772H3.71971Z" fill="white"/>
<path d="M25 8.43362C25 7.18782 23.9893 6.17712 22.7435 6.17712C21.7757 6.17712 20.9563 6.78978 20.6363 7.64634L19.5661 10.0433C19.4861 9.99356 16.2501 8.97702 12.5605 8.97702C8.87087 8.97702 5.5071 9.99844 5.42515 10.0492L4.41154 7.80048C4.1374 6.86588 3.28085 6.1781 2.2565 6.1781C1.01069 6.1781 0 7.18782 0 8.4346C0 9.47163 0.704363 10.336 1.6575 10.6004L2.07504 14.1895C2.516 15.7124 4.69543 15.7504 4.69543 15.7504H20.3046C20.3046 15.7504 22.484 15.7124 22.925 14.1875L23.3425 10.5984C24.2947 10.335 25 9.47065 25 8.43362Z" fill="white"/>
<path d="M2.25653 5.00647C3.73159 5.00647 5.05544 5.98009 5.50908 7.38492L6.00272 8.48244C6.95781 8.13806 10.3918 7.80636 12.5615 7.80636C14.6717 7.80636 18.0569 8.11464 18.9934 8.45609L19.5544 7.19858C20.0627 5.88546 21.3397 5.00647 22.7445 5.00647C22.8479 5.00647 22.9465 5.02794 23.0489 5.03672C23.0489 5.03086 23.0499 5.02403 23.0499 5.01818C23.0499 2.42511 20.9485 0.322754 18.3544 0.322754C18.0286 0.322754 6.97342 0.322754 6.64758 0.322754C4.05451 0.322754 1.95215 2.42413 1.95215 5.01818C1.95215 5.02403 1.95312 5.03086 1.95312 5.03672C2.05458 5.02891 2.15312 5.00647 2.25653 5.00647Z" fill="white"/>
</svg>
