<svg width="24" height="9" viewBox="0 0 24 9" fill="none" xmlns="http://www.w3.org/2000/svg">
<path fill-rule="evenodd" clip-rule="evenodd" d="M24 4.49994C24 4.32948 23.9455 4.16599 23.8485 4.04545C23.7515 3.92492 23.62 3.8572 23.4828 3.8572L1.76672 3.85726L3.98768 1.09861C4.0848 0.977924 4.13937 0.814234 4.13937 0.643553C4.13937 0.472872 4.0848 0.309182 3.98768 0.188492C3.89056 0.0678029 3.75883 0 3.62148 0C3.48413 0 3.35241 0.0678029 3.25529 0.188492L0.151951 4.04494C0.103784 4.10464 0.0655699 4.17557 0.0394952 4.25366C0.0134205 4.33174 -6.55651e-07 4.41546 -6.55651e-07 4.5C-6.55651e-07 4.58454 0.0134205 4.66825 0.0394952 4.74634C0.0655699 4.82443 0.103784 4.89536 0.151951 4.95506L3.25529 8.81151C3.35241 8.9322 3.48413 9 3.62148 9C3.75883 9 3.89056 8.9322 3.98768 8.81151C4.0848 8.69082 4.13937 8.52713 4.13937 8.35645C4.13937 8.18577 4.0848 8.02208 3.98768 7.90139L1.76672 5.14274L23.4828 5.14268C23.62 5.14268 23.7515 5.07497 23.8485 4.95443C23.9455 4.83389 24 4.67041 24 4.49994Z" fill="white"/>
</svg>
