<svg width="24" height="9" viewBox="0 0 24 9" fill="none" xmlns="http://www.w3.org/2000/svg">
<path fill-rule="evenodd" clip-rule="evenodd" d="M0 4.49994C0 4.32948 0.0544933 4.16599 0.151491 4.04545C0.248489 3.92492 0.380046 3.8572 0.517222 3.8572L22.2333 3.85726L20.0123 1.09861C19.9152 0.977924 19.8606 0.814234 19.8606 0.643553C19.8606 0.472872 19.9152 0.309182 20.0123 0.188492C20.1094 0.0678029 20.2412 0 20.3785 0C20.5159 0 20.6476 0.0678029 20.7447 0.188492L23.848 4.04494C23.8962 4.10464 23.9344 4.17557 23.9605 4.25366C23.9866 4.33174 24 4.41546 24 4.5C24 4.58454 23.9866 4.66825 23.9605 4.74634C23.9344 4.82443 23.8962 4.89536 23.848 4.95506L20.7447 8.81151C20.6476 8.9322 20.5159 9 20.3785 9C20.2412 9 20.1094 8.9322 20.0123 8.81151C19.9152 8.69082 19.8606 8.52713 19.8606 8.35645C19.8606 8.18577 19.9152 8.02208 20.0123 7.90139L22.2333 5.14274L0.517222 5.14268C0.380046 5.14268 0.248489 5.07497 0.151491 4.95443C0.0544933 4.83389 0 4.67041 0 4.49994Z" fill="white"/>
</svg>
